<?xml version="1.0" encoding="UTF-8"?>
<svg id="Layer_2" data-name="Layer 2" xmlns="http://www.w3.org/2000/svg" viewBox="0 0 1295.73 380.76">
  <defs>
    <style>
      .cls-1 {
        fill: #000;
        stroke-width: 0px;
      }
    </style>
  </defs>
  <g id="Layer_1-2" data-name="Layer 1">
    <g>
      <path class="cls-1" d="M0,106.1h40.02v-22.51c0-28.02,7.5-48.86,22.51-62.54,8.67-7.67,19.76-13.17,33.27-16.51C109.31,1.22,124.57-.28,141.58.04c5.33,0,10.67.17,16.01.5,5.33.34,10.83.84,16.51,1.5v56.03c-10.01-.33-18.51-.33-25.51,0-7,.34-12.76,1.59-17.26,3.75-4.5,2.17-7.75,5.42-9.76,9.76-2,4.34-3,10.18-3,17.51v17.01h55.53v51.03h-55.53v215.12H40.02v-215.12H0v-51.03Z"/>
      <path class="cls-1" d="M313.68,380.76c-21.35,0-40.7-3.59-58.03-10.76-17.35-7.17-32.19-17.09-44.53-29.77-12.34-12.67-21.85-27.59-28.52-44.78-6.68-17.17-10.01-35.77-10.01-55.78s3.33-38.6,10.01-55.78c6.67-17.17,16.17-32.1,28.52-44.78,12.33-12.67,27.18-22.59,44.53-29.77,17.34-7.17,36.68-10.76,58.03-10.76s40.19,3.59,57.53,10.76c17.34,7.18,32.1,17.1,44.28,29.77,12.17,12.68,21.59,27.6,28.27,44.78,6.67,17.18,10,35.77,10,55.78s-3.34,38.61-10,55.78c-6.68,17.18-16.1,32.1-28.27,44.78-12.18,12.68-26.94,22.6-44.28,29.77-17.35,7.17-36.52,10.76-57.53,10.76ZM313.18,323.73c19.67,0,34.77-7.75,45.28-23.26,10.51-15.51,15.76-35.77,15.76-60.78s-5.25-45.85-15.76-61.54c-10.51-15.67-25.6-23.51-45.28-23.51s-35.19,7.84-45.53,23.51c-10.34,15.68-15.51,36.19-15.51,61.54s5.17,45.28,15.51,60.78c10.33,15.51,25.51,23.26,45.53,23.26Z"/>
      <path class="cls-1" d="M642.86,372.26v-38.02h-1.5c-9.68,15.68-20.85,27.19-33.52,34.52-12.68,7.33-28.19,11.01-46.53,11.01-30.35,0-53.53-8.92-69.54-26.77-16.01-17.84-24.01-41.44-24.01-70.79V106.1h78.54v161.09c0,15.01,3.58,26.52,10.76,34.52,7.17,8,17.76,12.01,31.77,12.01,16.01,0,28.52-5.33,37.52-16.01,9-10.67,13.51-24.34,13.51-41.02V106.1h77.54v266.15h-74.54Z"/>
      <path class="cls-1" d="M827.96,146.63h1.5c8.33-16.01,19.43-28.02,33.27-36.02,13.84-8,30.09-12.01,48.78-12.01,29.34,0,52.11,8.93,68.29,26.77,16.17,17.85,24.26,41.77,24.26,71.79v175.1h-78.04v-160.09c0-14.67-3.75-26.43-11.26-35.27-7.5-8.83-18.6-13.26-33.27-13.26s-27.69,5.5-37.02,16.51c-9.34,11.01-14.01,25.01-14.01,42.02v150.09h-78.54V106.1h76.04v40.52Z"/>
      <path class="cls-1" d="M1138.14,380.76c-17.35,0-33.02-3.25-47.03-9.76-14.01-6.5-26.01-15.84-36.02-28.02-10.01-12.17-17.68-27.02-23.01-44.53-5.34-17.51-8-37.27-8-59.28,0-20.34,2.75-39.1,8.25-56.28,5.5-17.17,13.26-32.02,23.26-44.53s22.09-22.26,36.27-29.27c14.17-7,29.93-10.51,47.28-10.51,18.34,0,33.85,3.92,46.53,11.76,12.67,7.84,23.51,18.76,32.52,32.77h1c-.67-8.33-1.17-17.84-1.5-28.52-.34-10.67-.5-21.68-.5-33.02V.04h78.54v372.21h-75.54v-39.02h-1c-7.68,16.35-18.6,28.35-32.77,36.02-14.18,7.67-30.27,11.51-48.28,11.51ZM1159.15,317.72c19.01,0,33.85-7.25,44.53-21.76,10.67-14.51,16.01-33.43,16.01-56.78,0-11.67-1.25-22.51-3.75-32.52-2.5-10.01-6.25-18.59-11.26-25.76-5-7.17-11.26-12.76-18.76-16.76s-16.26-6-26.26-6c-18.68,0-32.6,7.43-41.77,22.26-9.18,14.84-13.76,34.27-13.76,58.28s4.58,43.2,13.76,57.53c9.17,14.34,22.93,21.51,41.27,21.51Z"/>
    </g>
  </g>
</svg>